<svg xmlns="http://www.w3.org/2000/svg" xmlns:xlink="http://www.w3.org/1999/xlink" width="402.144" height="466" viewBox="0 0 402.144 466">
  <defs>
    <filter id="moon" x="0" y="0" width="402.144" height="466" filterUnits="userSpaceOnUse">
      <feOffset dx="3" dy="4" input="SourceAlpha"/>
      <feGaussianBlur stdDeviation="3" result="blur"/>
      <feFlood flood-opacity="0.161"/>
      <feComposite operator="in" in2="blur"/>
      <feComposite in="SourceGraphic"/>
    </filter>
  </defs>
  <g transform="matrix(1, 0, 0, 1, 0, 0)" filter="url(#moon)">
    <path id="moon-2" data-name="moon" d="M223.5,32C100,32,0,132.3,0,256S100,480,223.5,480a222.714,222.714,0,0,0,155.8-63.4,15.984,15.984,0,0,0-13.9-27.2,175.5,175.5,0,0,1-30.1,2.6c-96.9,0-175.5-78.8-175.5-176A175.955,175.955,0,0,1,249.1,62.7a15.972,15.972,0,0,0-6.6-29.8c-6.3-.5-12.6-.8-19-.8Z" transform="translate(6 -27)" fill="#fff"/>
  </g>
</svg>
